<svg
    xmlns="http://www.w3.org/2000/svg">
    <defs>
        <symbol id="house">
            <path fill-rule="evenodd" d="M8 3.293l6 6V13.5a1.5 1.5 0 0 1-1.5 1.5h-9A1.5 1.5 0 0 1 2 13.5V9.293l6-6zm5-.793V6l-2-2V2.5a.5.5 0 0 1 .5-.5h1a.5.5 0 0 1 .5.5z" />
            <path fill-rule="evenodd" d="M7.293 1.5a1 1 0 0 1 1.414 0l6.647 6.646a.5.5 0 0 1-.708.708L8 2.207 1.354 8.854a.5.5 0 1 1-.708-.708L7.293 1.5z" />
        </symbol>
        <symbol id="logout">
            <path fill-rule="evenodd" d="M1.5 15a.5.5 0 0 0 0 1h13a.5.5 0 0 0 0-1H13V2.5A1.5 1.5 0 0 0 11.5 1H11V.5a.5.5 0 0 0-.57-.495l-7 1A.5.5 0 0 0 3 1.5V15H1.5zM11 2v13h1V2.5a.5.5 0 0 0-.5-.5H11zm-2.5 8c-.276 0-.5-.448-.5-1s.224-1 .5-1 .5.448.5 1-.224 1-.5 1z" />
        </symbol>
        <symbol id="folder">
            <path fill-rule="evenodd" d="M9.828 3h3.982a2 2 0 0 1 1.992 2.181l-.637 7A2 2 0 0 1 13.174 14H2.826a2 2 0 0 1-1.991-1.819l-.637-7a1.99 1.99 0 0 1 .342-1.31L.5 3a2 2 0 0 1 2-2h3.672a2 2 0 0 1 1.414.586l.828.828A2 2 0 0 0 9.828 3zm-8.322.12C1.72 3.042 1.95 3 2.19 3h5.396l-.707-.707A1 1 0 0 0 6.172 2H2.5a1 1 0 0 0-1 .981l.006.139z" />
        </symbol>
        <symbol id="update">
            <path fill-rule="evenodd" d="M2.854 7.146a.5.5 0 0 0-.708 0l-2 2a.5.5 0 1 0 .708.708L2.5 8.207l1.646 1.647a.5.5 0 0 0 .708-.708l-2-2zm13-1a.5.5 0 0 0-.708 0L13.5 7.793l-1.646-1.647a.5.5 0 0 0-.708.708l2 2a.5.5 0 0 0 .708 0l2-2a.5.5 0 0 0 0-.708z" />
            <path fill-rule="evenodd" d="M8 3a4.995 4.995 0 0 0-4.192 2.273.5.5 0 0 1-.837-.546A6 6 0 0 1 14 8a.5.5 0 0 1-1.001 0 5 5 0 0 0-5-5zM2.5 7.5A.5.5 0 0 1 3 8a5 5 0 0 0 9.192 2.727.5.5 0 1 1 .837.546A6 6 0 0 1 2 8a.5.5 0 0 1 .501-.5z" />
        </symbol>
        <symbol id="add">
            <path fill-rule="evenodd" d="M8 3.5a.5.5 0 0 1 .5.5v4a.5.5 0 0 1-.5.5H4a.5.5 0 0 1 0-1h3.5V4a.5.5 0 0 1 .5-.5z" />
            <path fill-rule="evenodd" d="M7.5 8a.5.5 0 0 1 .5-.5h4a.5.5 0 0 1 0 1H8.5V12a.5.5 0 0 1-1 0V8z" />
            <path fill-rule="evenodd" d="M8 15A7 7 0 1 0 8 1a7 7 0 0 0 0 14zm0 1A8 8 0 1 0 8 0a8 8 0 0 0 0 16z" />
        </symbol>
        <symbol id="expanded">
            <path d="M7.247 11.14L2.451 5.658C1.885 5.013 2.345 4 3.204 4h9.592a1 1 0 0 1 .753 1.659l-4.796 5.48a1 1 0 0 1-1.506 0z" />
        </symbol>
        <symbol id="collapsed">
            <path d="M12.14 8.753l-5.482 4.796c-.646.566-1.658.106-1.658-.753V3.204a1 1 0 0 1 1.659-.753l5.48 4.796a1 1 0 0 1 0 1.506z" />
        </symbol>
        <symbol id="open">
            <path fill-rule="evenodd" d="M13.81 3H9.828a2 2 0 0 1-1.414-.586l-.828-.828A2 2 0 0 0 6.172 1H2.5a2 2 0 0 0-2 2l.04.87a1.99 1.99 0 0 0-.342 1.311l.637 7A2 2 0 0 0 2.826 14h10.348a2 2 0 0 0 1.991-1.819l.637-7A2 2 0 0 0 13.81 3zM2.19 3c-.24 0-.47.042-.684.12L1.5 2.98a1 1 0 0 1 1-.98h3.672a1 1 0 0 1 .707.293L7.586 3H2.19zm9.608 5.271l-3.182 1.97c-.27.166-.616-.036-.616-.372V9.1s-2.571-.3-4 2.4c.571-4.8 3.143-4.8 4-4.8v-.769c0-.336.346-.538.616-.371l3.182 1.969c.27.166.27.576 0 .742z" />
        </symbol>
        <symbol id="unread_items">
            <path d="M10.5 8a2.5 2.5 0 1 1-5 0 2.5 2.5 0 0 1 5 0z" />
            <path fill-rule="evenodd" d="M0 8s3-5.5 8-5.5S16 8 16 8s-3 5.5-8 5.5S0 8 0 8zm8 3.5a3.5 3.5 0 1 0 0-7 3.5 3.5 0 0 0 0 7z" />
        </symbol>
        <symbol id="share">
            <path fill-rule="evenodd" d="M11 2.5a2.5 2.5 0 1 1 .603 1.628l-6.718 3.12a2.499 2.499 0 0 1 0 1.504l6.718 3.12a2.5 2.5 0 1 1-.488.876l-6.718-3.12a2.5 2.5 0 1 1 0-3.256l6.718-3.12A2.5 2.5 0 0 1 11 2.5z" />
        </symbol>
        <symbol id="account">
            <path fill-rule="evenodd" d="M3 14s-1 0-1-1 1-4 6-4 6 3 6 4-1 1-1 1H3zm5-6a3 3 0 1 0 0-6 3 3 0 0 0 0 6z" />
        </symbol>
        <symbol id="trash">
            <path fill-rule="evenodd" d="M2.5 1a1 1 0 0 0-1 1v1a1 1 0 0 0 1 1H3v9a2 2 0 0 0 2 2h6a2 2 0 0 0 2-2V4h.5a1 1 0 0 0 1-1V2a1 1 0 0 0-1-1H10a1 1 0 0 0-1-1H7a1 1 0 0 0-1 1H2.5zm3 4a.5.5 0 0 1 .5.5v7a.5.5 0 0 1-1 0v-7a.5.5 0 0 1 .5-.5zM8 5a.5.5 0 0 1 .5.5v7a.5.5 0 0 1-1 0v-7A.5.5 0 0 1 8 5zm3 .5a.5.5 0 0 0-1 0v7a.5.5 0 0 0 1 0v-7z" />
        </symbol>
        <symbol id="group">
            <path fill-rule="evenodd" d="M7 14s-1 0-1-1 1-4 5-4 5 3 5 4-1 1-1 1H7zm4-6a3 3 0 1 0 0-6 3 3 0 0 0 0 6zm-5.784 6A2.238 2.238 0 0 1 5 13c0-1.355.68-2.75 1.936-3.72A6.325 6.325 0 0 0 5 9c-4 0-5 3-5 4s1 1 1 1h4.216zM4.5 8a2.5 2.5 0 1 0 0-5 2.5 2.5 0 0 0 0 5z"/>
        </symbol>
        <symbol id="move-v">
            <path fill-rule="evenodd" d="M3.646 9.146a.5.5 0 0 1 .708 0L8 12.793l3.646-3.647a.5.5 0 0 1 .708.708l-4 4a.5.5 0 0 1-.708 0l-4-4a.5.5 0 0 1 0-.708zm0-2.292a.5.5 0 0 0 .708 0L8 3.207l3.646 3.647a.5.5 0 0 0 .708-.708l-4-4a.5.5 0 0 0-.708 0l-4 4a.5.5 0 0 0 0 .708z"/>
        </symbol>
        <symbol id="cancel">
            <path fill-rule="evenodd" d="M9.08 2H2a1 1 0 0 0-1 1v10a1 1 0 0 0 1 1h7.08a1 1 0 0 0 .76-.35L14.682 8 9.839 2.35A1 1 0 0 0 9.08 2zM2 1a2 2 0 0 0-2 2v10a2 2 0 0 0 2 2h7.08a2 2 0 0 0 1.519-.698l4.843-5.651a1 1 0 0 0 0-1.302L10.6 1.7A2 2 0 0 0 9.08 1H2zm7.854 4.146a.5.5 0 0 1 0 .708L7.707 8l2.147 2.146a.5.5 0 0 1-.708.708L7 8.707l-2.146 2.147a.5.5 0 0 1-.708-.708L6.293 8 4.146 5.854a.5.5 0 1 1 .708-.708L7 7.293l2.146-2.147a.5.5 0 0 1 .708 0z"/>
        </symbol>
        <symbol id="join">
            <path fill-rule="evenodd" d="M6 3.5a.5.5 0 0 1 .5-.5h8a.5.5 0 0 1 .5.5v9a.5.5 0 0 1-.5.5h-8a.5.5 0 0 1-.5-.5v-2a.5.5 0 0 0-1 0v2A1.5 1.5 0 0 0 6.5 14h8a1.5 1.5 0 0 0 1.5-1.5v-9A1.5 1.5 0 0 0 14.5 2h-8A1.5 1.5 0 0 0 5 3.5v2a.5.5 0 0 0 1 0v-2z"/>
            <path fill-rule="evenodd" d="M11.854 8.354a.5.5 0 0 0 0-.708l-3-3a.5.5 0 1 0-.708.708L10.293 7.5H1.5a.5.5 0 0 0 0 1h8.793l-2.147 2.146a.5.5 0 0 0 .708.708l3-3z"/>
        </symbol>
        <symbol id="permission_granted">
            <path fill-rule="evenodd" d="M14 1H2a1 1 0 0 0-1 1v12a1 1 0 0 0 1 1h12a1 1 0 0 0 1-1V2a1 1 0 0 0-1-1zM2 0a2 2 0 0 0-2 2v12a2 2 0 0 0 2 2h12a2 2 0 0 0 2-2V2a2 2 0 0 0-2-2H2z"/>
            <path fill-rule="evenodd" d="M10.97 4.97a.75.75 0 0 1 1.071 1.05l-3.992 4.99a.75.75 0 0 1-1.08.02L4.324 8.384a.75.75 0 1 1 1.06-1.06l2.094 2.093 3.473-4.425a.236.236 0 0 1 .02-.022z"/>
        </symbol>
        <symbol id="permission_denied">
            <path fill-rule="evenodd" d="M14 1H2a1 1 0 0 0-1 1v12a1 1 0 0 0 1 1h12a1 1 0 0 0 1-1V2a1 1 0 0 0-1-1zM2 0a2 2 0 0 0-2 2v12a2 2 0 0 0 2 2h12a2 2 0 0 0 2-2V2a2 2 0 0 0-2-2H2z"/>
            <path fill-rule="evenodd" d="M4.646 4.646a.5.5 0 0 1 .708 0L8 7.293l2.646-2.647a.5.5 0 0 1 .708.708L8.707 8l2.647 2.646a.5.5 0 0 1-.708.708L8 8.707l-2.646 2.647a.5.5 0 0 1-.708-.708L7.293 8 4.646 5.354a.5.5 0 0 1 0-.708z"/>
        </symbol>
        <symbol id="success">
            <path fill-rule="evenodd" d="M16 8A8 8 0 1 1 0 8a8 8 0 0 1 16 0zm-3.97-3.03a.75.75 0 0 0-1.08.022L7.477 9.417 5.384 7.323a.75.75 0 0 0-1.06 1.06L6.97 11.03a.75.75 0 0 0 1.079-.02l3.992-4.99a.75.75 0 0 0-.01-1.05z"/>
        </symbol>
        <symbol id="info">
            <path fill-rule="evenodd" d="M8 16A8 8 0 1 0 8 0a8 8 0 0 0 0 16zm.93-9.412l-2.29.287-.082.38.45.083c.294.07.352.176.288.469l-.738 3.468c-.194.897.105 1.319.808 1.319.545 0 1.178-.252 1.465-.598l.088-.416c-.2.176-.492.246-.686.246-.275 0-.375-.193-.304-.533L8.93 6.588zM8 5.5a1 1 0 1 0 0-2 1 1 0 0 0 0 2z"/>
        </symbol>
        <symbol id="warning">
            <path fill-rule="evenodd" d="M8.982 1.566a1.13 1.13 0 0 0-1.96 0L.165 13.233c-.457.778.091 1.767.98 1.767h13.713c.889 0 1.438-.99.98-1.767L8.982 1.566zM8 5a.905.905 0 0 0-.9.995l.35 3.507a.552.552 0 0 0 1.1 0l.35-3.507A.905.905 0 0 0 8 5zm.002 6a1 1 0 1 0 0 2 1 1 0 0 0 0-2z"/>
        </symbol>
        <symbol id="error">
            <path fill-rule="evenodd" d="M11.46.146A.5.5 0 0 0 11.107 0H4.893a.5.5 0 0 0-.353.146L.146 4.54A.5.5 0 0 0 0 4.893v6.214a.5.5 0 0 0 .146.353l4.394 4.394a.5.5 0 0 0 .353.146h6.214a.5.5 0 0 0 .353-.146l4.394-4.394a.5.5 0 0 0 .146-.353V4.893a.5.5 0 0 0-.146-.353L11.46.146zM8 4a.905.905 0 0 0-.9.995l.35 3.507a.552.552 0 0 0 1.1 0l.35-3.507A.905.905 0 0 0 8 4zm.002 6a1 1 0 1 0 0 2 1 1 0 0 0 0-2z"/>
        </symbol>
        <symbol id="redirect">
            <path fill-rule="evenodd" d="M16 8A8 8 0 1 1 0 8a8 8 0 0 1 16 0zm-11.5.5a.5.5 0 0 1 0-1h5.793L8.146 5.354a.5.5 0 1 1 .708-.708l3 3a.5.5 0 0 1 0 .708l-3 3a.5.5 0 0 1-.708-.708L10.293 8.5H4.5z"/>
        </symbol>
    </defs>
</svg>
