<svg xmlns="http://www.w3.org/2000/svg">
	<defs>
		<symbol id="house">
			<path fill-rule="evenodd" d="M8 3.293l6 6V13.5a1.5 1.5 0 0 1-1.5 1.5h-9A1.5 1.5 0 0 1 2 13.5V9.293l6-6zm5-.793V6l-2-2V2.5a.5.5 0 0 1 .5-.5h1a.5.5 0 0 1 .5.5z" />
			<path fill-rule="evenodd" d="M7.293 1.5a1 1 0 0 1 1.414 0l6.647 6.646a.5.5 0 0 1-.708.708L8 2.207 1.354 8.854a.5.5 0 1 1-.708-.708L7.293 1.5z" />
		</symbol>
		<symbol id="logout">
			<path fill-rule="evenodd" d="M1.5 15a.5.5 0 0 0 0 1h13a.5.5 0 0 0 0-1H13V2.5A1.5 1.5 0 0 0 11.5 1H11V.5a.5.5 0 0 0-.57-.495l-7 1A.5.5 0 0 0 3 1.5V15H1.5zM11 2v13h1V2.5a.5.5 0 0 0-.5-.5H11zm-2.5 8c-.276 0-.5-.448-.5-1s.224-1 .5-1 .5.448.5 1-.224 1-.5 1z" />
		</symbol>
		<symbol id="favicon">
			<path d="M3.612 15.443c-.386.198-.824-.149-.746-.592l.83-4.73L.173 6.765c-.329-.314-.158-.888.283-.95l4.898-.696L7.538.792c.197-.39.73-.39.927 0l2.184 4.327 4.898.696c.441.062.612.636.283.95l-3.523 3.356.83 4.73c.078.443-.36.79-.746.592L8 13.187l-4.389 2.256z" />
		</symbol>
		<symbol id="trash">
			<path fill-rule="evenodd" d="M2.5 1a1 1 0 0 0-1 1v1a1 1 0 0 0 1 1H3v9a2 2 0 0 0 2 2h6a2 2 0 0 0 2-2V4h.5a1 1 0 0 0 1-1V2a1 1 0 0 0-1-1H10a1 1 0 0 0-1-1H7a1 1 0 0 0-1 1H2.5zm3 4a.5.5 0 0 1 .5.5v7a.5.5 0 0 1-1 0v-7a.5.5 0 0 1 .5-.5zM8 5a.5.5 0 0 1 .5.5v7a.5.5 0 0 1-1 0v-7A.5.5 0 0 1 8 5zm3 .5a.5.5 0 0 0-1 0v7a.5.5 0 0 0 1 0v-7z" />
		</symbol>
		<symbol id="folder">
			<path fill-rule="evenodd" d="M9.828 3h3.982a2 2 0 0 1 1.992 2.181l-.637 7A2 2 0 0 1 13.174 14H2.826a2 2 0 0 1-1.991-1.819l-.637-7a1.99 1.99 0 0 1 .342-1.31L.5 3a2 2 0 0 1 2-2h3.672a2 2 0 0 1 1.414.586l.828.828A2 2 0 0 0 9.828 3zm-8.322.12C1.72 3.042 1.95 3 2.19 3h5.396l-.707-.707A1 1 0 0 0 6.172 2H2.5a1 1 0 0 0-1 .981l.006.139z" />
		</symbol>
		<symbol id="update">
			<path fill-rule="evenodd" d="M2.854 7.146a.5.5 0 0 0-.708 0l-2 2a.5.5 0 1 0 .708.708L2.5 8.207l1.646 1.647a.5.5 0 0 0 .708-.708l-2-2zm13-1a.5.5 0 0 0-.708 0L13.5 7.793l-1.646-1.647a.5.5 0 0 0-.708.708l2 2a.5.5 0 0 0 .708 0l2-2a.5.5 0 0 0 0-.708z" />
			<path fill-rule="evenodd" d="M8 3a4.995 4.995 0 0 0-4.192 2.273.5.5 0 0 1-.837-.546A6 6 0 0 1 14 8a.5.5 0 0 1-1.001 0 5 5 0 0 0-5-5zM2.5 7.5A.5.5 0 0 1 3 8a5 5 0 0 0 9.192 2.727.5.5 0 1 1 .837.546A6 6 0 0 1 2 8a.5.5 0 0 1 .501-.5z" />
		</symbol>
		<symbol id="add">
			<path fill-rule="evenodd" d="M8 3.5a.5.5 0 0 1 .5.5v4a.5.5 0 0 1-.5.5H4a.5.5 0 0 1 0-1h3.5V4a.5.5 0 0 1 .5-.5z" />
			<path fill-rule="evenodd" d="M7.5 8a.5.5 0 0 1 .5-.5h4a.5.5 0 0 1 0 1H8.5V12a.5.5 0 0 1-1 0V8z" />
			<path fill-rule="evenodd" d="M8 15A7 7 0 1 0 8 1a7 7 0 0 0 0 14zm0 1A8 8 0 1 0 8 0a8 8 0 0 0 0 16z" />
		</symbol>
		<symbol id="restore">
			<path fill-rule="evenodd" d="M3.18 4l1.528 9.164a1 1 0 0 0 .986.836h4.612a1 1 0 0 0 .986-.836L12.82 4H3.18zm.541 9.329A2 2 0 0 0 5.694 15h4.612a2 2 0 0 0 1.973-1.671L14 3H2l1.721 10.329z" />
			<path d="M14 3c0 1.105-2.686 2-6 2s-6-.895-6-2 2.686-2 6-2 6 .895 6 2z" />
			<path fill-rule="evenodd" d="M12.9 3c-.18-.14-.497-.307-.974-.466C10.967 2.214 9.58 2 8 2s-2.968.215-3.926.534c-.477.16-.795.327-.975.466.18.14.498.307.975.466C5.032 3.786 6.42 4 8 4s2.967-.215 3.926-.534c.477-.16.795-.327.975-.466zM8 5c3.314 0 6-.895 6-2s-2.686-2-6-2-6 .895-6 2 2.686 2 6 2z" />
		</symbol>
		<symbol id="expanded">
			<path d="M7.247 11.14L2.451 5.658C1.885 5.013 2.345 4 3.204 4h9.592a1 1 0 0 1 .753 1.659l-4.796 5.48a1 1 0 0 1-1.506 0z" />
		</symbol>
		<symbol id="collapsed">
			<path d="M12.14 8.753l-5.482 4.796c-.646.566-1.658.106-1.658-.753V3.204a1 1 0 0 1 1.659-.753l5.48 4.796a1 1 0 0 1 0 1.506z" />
		</symbol>
		<symbol id="open">
			<path fill-rule="evenodd" d="M13.81 3H9.828a2 2 0 0 1-1.414-.586l-.828-.828A2 2 0 0 0 6.172 1H2.5a2 2 0 0 0-2 2l.04.87a1.99 1.99 0 0 0-.342 1.311l.637 7A2 2 0 0 0 2.826 14h10.348a2 2 0 0 0 1.991-1.819l.637-7A2 2 0 0 0 13.81 3zM2.19 3c-.24 0-.47.042-.684.12L1.5 2.98a1 1 0 0 1 1-.98h3.672a1 1 0 0 1 .707.293L7.586 3H2.19zm9.608 5.271l-3.182 1.97c-.27.166-.616-.036-.616-.372V9.1s-2.571-.3-4 2.4c.571-4.8 3.143-4.8 4-4.8v-.769c0-.336.346-.538.616-.371l3.182 1.969c.27.166.27.576 0 .742z" />
		</symbol>
		<symbol id="unread_items">
			<path d="M10.5 8a2.5 2.5 0 1 1-5 0 2.5 2.5 0 0 1 5 0z" />
			<path fill-rule="evenodd" d="M0 8s3-5.5 8-5.5S16 8 16 8s-3 5.5-8 5.5S0 8 0 8zm8 3.5a3.5 3.5 0 1 0 0-7 3.5 3.5 0 0 0 0 7z" />
		</symbol>
        <symbol id="share">
            <path fill-rule="evenodd" d="M11 2.5a2.5 2.5 0 1 1 .603 1.628l-6.718 3.12a2.499 2.499 0 0 1 0 1.504l6.718 3.12a2.5 2.5 0 1 1-.488.876l-6.718-3.12a2.5 2.5 0 1 1 0-3.256l6.718-3.12A2.5 2.5 0 0 1 11 2.5z"/>
        </symbol>
        <symbol id="account">
            <path fill-rule="evenodd" d="M3 14s-1 0-1-1 1-4 6-4 6 3 6 4-1 1-1 1H3zm5-6a3 3 0 1 0 0-6 3 3 0 0 0 0 6z"/>
        </symbol>
	</defs>
</svg>
